<svg width="90" height="44" viewBox="0 0 90 44" fill="none" xmlns="http://www.w3.org/2000/svg">
<path d="M0.84 38.42V34.748H1.656V38.276C1.656 38.988 1.776 39.52 2.016 39.872C2.264 40.224 2.628 40.4 3.108 40.4C3.428 40.4 3.736 40.332 4.032 40.196C4.336 40.052 4.604 39.852 4.836 39.596C5.068 39.332 5.244 39.028 5.364 38.684V34.748H6.18V40.016C6.18 40.128 6.204 40.212 6.252 40.268C6.3 40.316 6.372 40.344 6.468 40.352V41C6.372 41.008 6.296 41.012 6.24 41.012C6.184 41.02 6.132 41.024 6.084 41.024C5.924 41.008 5.784 40.944 5.664 40.832C5.552 40.72 5.492 40.584 5.484 40.424L5.46 39.584C5.188 40.064 4.816 40.44 4.344 40.712C3.88 40.984 3.376 41.12 2.832 41.12C2.176 41.12 1.68 40.892 1.344 40.436C1.008 39.98 0.84 39.308 0.84 38.42ZM10.077 41.12C9.565 41.12 9.089 41.036 8.649 40.868C8.209 40.7 7.829 40.444 7.509 40.1L7.845 39.524C8.197 39.852 8.549 40.092 8.901 40.244C9.261 40.388 9.641 40.46 10.041 40.46C10.529 40.46 10.925 40.364 11.229 40.172C11.533 39.972 11.685 39.688 11.685 39.32C11.685 39.072 11.609 38.884 11.457 38.756C11.313 38.62 11.101 38.512 10.821 38.432C10.549 38.344 10.221 38.252 9.837 38.156C9.405 38.036 9.041 37.912 8.745 37.784C8.457 37.648 8.237 37.48 8.085 37.28C7.941 37.072 7.869 36.804 7.869 36.476C7.869 36.068 7.969 35.732 8.169 35.468C8.377 35.196 8.657 34.992 9.009 34.856C9.369 34.712 9.769 34.64 10.209 34.64C10.689 34.64 11.113 34.716 11.481 34.868C11.849 35.02 12.149 35.232 12.381 35.504L11.985 36.056C11.761 35.8 11.493 35.612 11.181 35.492C10.877 35.364 10.537 35.3 10.161 35.3C9.905 35.3 9.661 35.336 9.429 35.408C9.197 35.472 9.005 35.584 8.853 35.744C8.709 35.896 8.637 36.108 8.637 36.38C8.637 36.604 8.693 36.78 8.805 36.908C8.917 37.028 9.085 37.132 9.309 37.22C9.533 37.3 9.809 37.388 10.137 37.484C10.609 37.612 11.021 37.744 11.373 37.88C11.725 38.008 11.997 38.176 12.189 38.384C12.381 38.592 12.477 38.884 12.477 39.26C12.477 39.844 12.257 40.3 11.817 40.628C11.377 40.956 10.797 41.12 10.077 41.12ZM16.5258 41.12C16.0778 41.12 15.6618 41.036 15.2778 40.868C14.8938 40.692 14.5618 40.456 14.2818 40.16C14.0018 39.856 13.7818 39.508 13.6218 39.116C13.4698 38.724 13.3938 38.304 13.3938 37.856C13.3938 37.272 13.5258 36.736 13.7898 36.248C14.0618 35.76 14.4338 35.372 14.9058 35.084C15.3778 34.788 15.9138 34.64 16.5138 34.64C17.1298 34.64 17.6658 34.788 18.1218 35.084C18.5858 35.38 18.9498 35.772 19.2138 36.26C19.4778 36.74 19.6098 37.268 19.6098 37.844C19.6098 37.908 19.6098 37.972 19.6098 38.036C19.6098 38.092 19.6058 38.136 19.5978 38.168H14.2458C14.2858 38.616 14.4098 39.016 14.6178 39.368C14.8338 39.712 15.1098 39.988 15.4458 40.196C15.7898 40.396 16.1618 40.496 16.5618 40.496C16.9698 40.496 17.3538 40.392 17.7138 40.184C18.0818 39.976 18.3378 39.704 18.4818 39.368L19.1898 39.56C19.0618 39.856 18.8658 40.124 18.6018 40.364C18.3378 40.604 18.0258 40.792 17.6658 40.928C17.3138 41.056 16.9338 41.12 16.5258 41.12ZM14.2218 37.58H18.8418C18.8098 37.124 18.6858 36.724 18.4698 36.38C18.2618 36.036 17.9858 35.768 17.6418 35.576C17.3058 35.376 16.9338 35.276 16.5258 35.276C16.1178 35.276 15.7458 35.376 15.4098 35.576C15.0738 35.768 14.7978 36.04 14.5818 36.392C14.3738 36.736 14.2538 37.132 14.2218 37.58ZM21.641 38.576C21.641 38.224 21.677 37.924 21.749 37.676C21.829 37.42 21.941 37.2 22.085 37.016C22.237 36.832 22.429 36.672 22.661 36.536C22.813 36.44 22.985 36.34 23.177 36.236C23.377 36.132 23.561 36.012 23.729 35.876C23.905 35.732 24.049 35.56 24.161 35.36C24.273 35.152 24.329 34.904 24.329 34.616C24.329 34.264 24.249 33.976 24.089 33.752C23.937 33.52 23.737 33.348 23.489 33.236C23.241 33.116 22.977 33.056 22.697 33.056C22.417 33.056 22.149 33.112 21.893 33.224C21.645 33.328 21.425 33.472 21.233 33.656C21.041 33.84 20.885 34.048 20.765 34.28L20.201 33.92C20.353 33.592 20.557 33.312 20.813 33.08C21.077 32.848 21.373 32.672 21.701 32.552C22.029 32.432 22.365 32.372 22.709 32.372C23.005 32.372 23.293 32.42 23.573 32.516C23.853 32.604 24.101 32.744 24.317 32.936C24.541 33.128 24.717 33.368 24.845 33.656C24.981 33.936 25.049 34.272 25.049 34.664C25.049 34.984 25.005 35.256 24.917 35.48C24.829 35.696 24.705 35.884 24.545 36.044C24.393 36.196 24.221 36.332 24.029 36.452C23.837 36.572 23.637 36.688 23.429 36.8C23.245 36.904 23.069 37.02 22.901 37.148C22.733 37.276 22.597 37.452 22.493 37.676C22.389 37.892 22.337 38.192 22.337 38.576H21.641ZM21.653 41V39.716H22.361V41H21.653Z" fill="#9C27B0"/>
<path d="M70.3415 22.812V27H68.0015V18.48H69.8255L73.2455 22.812V18.48H75.5855V27H73.7255L70.3415 22.812ZM83.1204 24.96V27H77.0484V18.48H83.0124V20.52H79.3884V21.72H82.4844V23.616H79.3884V24.96H83.1204Z" fill="#9C27B0"/>
<circle cx="51.75" cy="22.75" r="13.75" fill="#9C27B0"/>
<circle cx="52" cy="23" r="14" fill="#9C27B0"/>
<path d="M43.5719 16.8937C42.9756 15.6182 44.7409 14.572 45.1884 15.6182C45.6358 16.6643 45.4293 17.8224 46.3579 18.0546C48.2195 18.414 50.3377 18.9664 50.3377 18.9664C50.3377 18.9664 50.6632 19.0937 51.239 19.0833C51.7227 19.0745 52.1404 18.9664 52.1404 18.9664C52.1404 18.9664 54.187 18.4257 56.1091 18.0546C56.7515 17.9305 56.8389 16.6363 57.3479 15.6182C57.857 14.6001 59.5916 15.6182 58.8752 17.1454C58.1587 18.6727 58.1781 20.2443 57.1649 20.4671C55.5334 20.8259 53.9431 21.1598 53.9431 21.1598C53.9431 21.1598 53.7059 25.1538 53.9431 25.9852C54.1802 26.8166 55.6886 30.6435 56.1964 32.1266C56.7043 33.6098 54.2517 34.5385 53.4924 33.004C52.7331 31.4695 51.239 27.3012 51.239 27.3012C51.239 27.3012 49.4363 31.688 48.9856 33.004C48.535 34.32 45.8309 33.8813 46.2816 32.1266C46.7323 30.3719 48.2101 26.8166 48.535 25.9852C48.8598 25.1538 48.535 21.1598 48.535 21.1598C48.535 21.1598 47.0609 20.8259 45.4293 20.4671C44.4161 20.2443 44.1683 18.1692 43.5719 16.8937Z" fill="#FAFAFA"/>
<path d="M54.1536 15.4615C54.1536 16.9484 52.9483 18.1538 51.4613 18.1538C49.9744 18.1538 48.769 16.9484 48.769 15.4615C48.769 13.9746 49.9744 12.7692 51.4613 12.7692C52.9483 12.7692 54.1536 13.9746 54.1536 15.4615Z" fill="#FAFAFA"/>
<path d="M6.804 24.96V27H0.732V18.48H6.696V20.52H3.072V21.72H6.168V23.616H3.072V24.96H6.804ZM9.53616 18.48L11.2042 24.3L12.8482 18.48H15.3082L12.3682 27H10.0402L7.06416 18.48H9.53616ZM22.0267 24.96V27H15.9547V18.48H21.9187V20.52H18.2947V21.72H21.3907V23.616H18.2947V24.96H22.0267ZM23.1148 27V18.48H27.0268C27.4428 18.48 27.8268 18.564 28.1788 18.732C28.5308 18.9 28.8348 19.128 29.0908 19.416C29.3468 19.696 29.5428 20.012 29.6788 20.364C29.8228 20.716 29.8948 21.072 29.8948 21.432C29.8948 21.76 29.8468 22.076 29.7508 22.38C29.6548 22.684 29.5148 22.964 29.3308 23.22C29.1468 23.468 28.9268 23.684 28.6708 23.868L30.4708 27H27.9028L26.4028 24.384H25.4548V27H23.1148ZM25.4548 22.344H26.9308C27.0268 22.344 27.1188 22.308 27.2068 22.236C27.2948 22.164 27.3668 22.06 27.4228 21.924C27.4868 21.788 27.5188 21.624 27.5188 21.432C27.5188 21.232 27.4828 21.068 27.4108 20.94C27.3468 20.804 27.2628 20.7 27.1588 20.628C27.0628 20.556 26.9668 20.52 26.8708 20.52H25.4548V22.344ZM32.4366 18.48L33.9606 21.96L35.5206 18.48H38.0646L35.1246 24.18V27H32.7966V24.156L29.9046 18.48H32.4366Z" fill="#9C27B0"/>
<path d="M0.504 6.68C0.504 6.16 0.592 5.652 0.768 5.156C0.952 4.652 1.216 4.196 1.56 3.788C1.904 3.372 2.328 3.044 2.832 2.804C3.336 2.556 3.908 2.432 4.548 2.432C5.308 2.432 5.956 2.608 6.492 2.96C7.036 3.304 7.436 3.748 7.692 4.292L7.032 4.7C6.848 4.324 6.616 4.028 6.336 3.812C6.056 3.588 5.756 3.428 5.436 3.332C5.124 3.236 4.812 3.188 4.5 3.188C3.988 3.188 3.536 3.292 3.144 3.5C2.752 3.7 2.42 3.972 2.148 4.316C1.884 4.652 1.684 5.032 1.548 5.456C1.412 5.872 1.344 6.296 1.344 6.728C1.344 7.2 1.424 7.652 1.584 8.084C1.744 8.516 1.968 8.9 2.256 9.236C2.544 9.564 2.88 9.828 3.264 10.028C3.656 10.22 4.08 10.316 4.536 10.316C4.856 10.316 5.184 10.26 5.52 10.148C5.856 10.036 6.168 9.864 6.456 9.632C6.752 9.4 6.988 9.1 7.164 8.732L7.86 9.092C7.684 9.516 7.412 9.876 7.044 10.172C6.676 10.468 6.264 10.692 5.808 10.844C5.36 10.996 4.92 11.072 4.488 11.072C3.904 11.072 3.368 10.948 2.88 10.7C2.392 10.444 1.968 10.108 1.608 9.692C1.256 9.268 0.984 8.796 0.792 8.276C0.6 7.748 0.504 7.216 0.504 6.68ZM8.62256 9.2C8.62256 8.808 8.73456 8.472 8.95856 8.192C9.18256 7.904 9.49056 7.684 9.88256 7.532C10.2826 7.372 10.7426 7.292 11.2626 7.292C11.5666 7.292 11.8826 7.316 12.2106 7.364C12.5386 7.412 12.8306 7.484 13.0866 7.58V7.052C13.0866 6.524 12.9306 6.104 12.6186 5.792C12.3066 5.48 11.8746 5.324 11.3226 5.324C10.9866 5.324 10.6546 5.388 10.3266 5.516C10.0066 5.636 9.67056 5.816 9.31856 6.056L9.00656 5.48C9.41456 5.2 9.81456 4.992 10.2066 4.856C10.5986 4.712 10.9986 4.64 11.4066 4.64C12.1746 4.64 12.7826 4.86 13.2306 5.3C13.6786 5.74 13.9026 6.348 13.9026 7.124V10.016C13.9026 10.128 13.9266 10.212 13.9746 10.268C14.0226 10.316 14.0986 10.344 14.2026 10.352V11C14.1146 11.008 14.0386 11.016 13.9746 11.024C13.9106 11.032 13.8626 11.032 13.8306 11.024C13.6306 11.016 13.4786 10.952 13.3746 10.832C13.2706 10.712 13.2146 10.584 13.2066 10.448L13.1946 9.992C12.9146 10.352 12.5506 10.632 12.1026 10.832C11.6546 11.024 11.1986 11.12 10.7346 11.12C10.3346 11.12 9.97056 11.036 9.64256 10.868C9.32256 10.692 9.07056 10.46 8.88656 10.172C8.71056 9.876 8.62256 9.552 8.62256 9.2ZM12.8106 9.68C12.8986 9.568 12.9666 9.46 13.0146 9.356C13.0626 9.252 13.0866 9.16 13.0866 9.08V8.168C12.8146 8.064 12.5306 7.984 12.2346 7.928C11.9466 7.872 11.6546 7.844 11.3586 7.844C10.7746 7.844 10.3026 7.96 9.94256 8.192C9.58256 8.424 9.40256 8.74 9.40256 9.14C9.40256 9.372 9.46256 9.592 9.58256 9.8C9.70256 10 9.87856 10.168 10.1106 10.304C10.3426 10.432 10.6146 10.496 10.9266 10.496C11.3186 10.496 11.6826 10.42 12.0186 10.268C12.3626 10.116 12.6266 9.92 12.8106 9.68ZM20.9216 11H20.1056V7.508C20.1056 6.772 19.9976 6.236 19.7816 5.9C19.5656 5.556 19.2256 5.384 18.7616 5.384C18.4416 5.384 18.1256 5.464 17.8136 5.624C17.5016 5.776 17.2256 5.988 16.9856 6.26C16.7536 6.524 16.5856 6.828 16.4816 7.172V11H15.6656V4.748H16.4096V6.164C16.5776 5.86 16.7976 5.596 17.0696 5.372C17.3416 5.14 17.6496 4.96 17.9936 4.832C18.3376 4.704 18.6936 4.64 19.0616 4.64C19.4056 4.64 19.6976 4.704 19.9376 4.832C20.1776 4.96 20.3696 5.144 20.5136 5.384C20.6576 5.616 20.7616 5.9 20.8256 6.236C20.8896 6.564 20.9216 6.932 20.9216 7.34V11Z" fill="#9C27B0"/>
</svg>
