<svg width="94" height="94" viewBox="0 0 94 94" fill="none" xmlns="http://www.w3.org/2000/svg">
<path d="M3.84 63.42V59.748H4.656V63.276C4.656 63.988 4.776 64.52 5.016 64.872C5.264 65.224 5.628 65.4 6.108 65.4C6.428 65.4 6.736 65.332 7.032 65.196C7.336 65.052 7.604 64.852 7.836 64.596C8.068 64.332 8.244 64.028 8.364 63.684V59.748H9.18V65.016C9.18 65.128 9.204 65.212 9.252 65.268C9.3 65.316 9.372 65.344 9.468 65.352V66C9.372 66.008 9.296 66.012 9.24 66.012C9.184 66.02 9.132 66.024 9.084 66.024C8.924 66.008 8.784 65.944 8.664 65.832C8.552 65.72 8.492 65.584 8.484 65.424L8.46 64.584C8.188 65.064 7.816 65.44 7.344 65.712C6.88 65.984 6.376 66.12 5.832 66.12C5.176 66.12 4.68 65.892 4.344 65.436C4.008 64.98 3.84 64.308 3.84 63.42ZM13.077 66.12C12.565 66.12 12.089 66.036 11.649 65.868C11.209 65.7 10.829 65.444 10.509 65.1L10.845 64.524C11.197 64.852 11.549 65.092 11.901 65.244C12.261 65.388 12.641 65.46 13.041 65.46C13.529 65.46 13.925 65.364 14.229 65.172C14.533 64.972 14.685 64.688 14.685 64.32C14.685 64.072 14.609 63.884 14.457 63.756C14.313 63.62 14.101 63.512 13.821 63.432C13.549 63.344 13.221 63.252 12.837 63.156C12.405 63.036 12.041 62.912 11.745 62.784C11.457 62.648 11.237 62.48 11.085 62.28C10.941 62.072 10.869 61.804 10.869 61.476C10.869 61.068 10.969 60.732 11.169 60.468C11.377 60.196 11.657 59.992 12.009 59.856C12.369 59.712 12.769 59.64 13.209 59.64C13.689 59.64 14.113 59.716 14.481 59.868C14.849 60.02 15.149 60.232 15.381 60.504L14.985 61.056C14.761 60.8 14.493 60.612 14.181 60.492C13.877 60.364 13.537 60.3 13.161 60.3C12.905 60.3 12.661 60.336 12.429 60.408C12.197 60.472 12.005 60.584 11.853 60.744C11.709 60.896 11.637 61.108 11.637 61.38C11.637 61.604 11.693 61.78 11.805 61.908C11.917 62.028 12.085 62.132 12.309 62.22C12.533 62.3 12.809 62.388 13.137 62.484C13.609 62.612 14.021 62.744 14.373 62.88C14.725 63.008 14.997 63.176 15.189 63.384C15.381 63.592 15.477 63.884 15.477 64.26C15.477 64.844 15.257 65.3 14.817 65.628C14.377 65.956 13.797 66.12 13.077 66.12ZM19.5258 66.12C19.0778 66.12 18.6618 66.036 18.2778 65.868C17.8938 65.692 17.5618 65.456 17.2818 65.16C17.0018 64.856 16.7818 64.508 16.6218 64.116C16.4698 63.724 16.3938 63.304 16.3938 62.856C16.3938 62.272 16.5258 61.736 16.7898 61.248C17.0618 60.76 17.4338 60.372 17.9058 60.084C18.3778 59.788 18.9138 59.64 19.5138 59.64C20.1298 59.64 20.6658 59.788 21.1218 60.084C21.5858 60.38 21.9498 60.772 22.2138 61.26C22.4778 61.74 22.6098 62.268 22.6098 62.844C22.6098 62.908 22.6098 62.972 22.6098 63.036C22.6098 63.092 22.6058 63.136 22.5978 63.168H17.2458C17.2858 63.616 17.4098 64.016 17.6178 64.368C17.8338 64.712 18.1098 64.988 18.4458 65.196C18.7898 65.396 19.1618 65.496 19.5618 65.496C19.9698 65.496 20.3538 65.392 20.7138 65.184C21.0818 64.976 21.3378 64.704 21.4818 64.368L22.1898 64.56C22.0618 64.856 21.8658 65.124 21.6018 65.364C21.3378 65.604 21.0258 65.792 20.6658 65.928C20.3138 66.056 19.9338 66.12 19.5258 66.12ZM17.2218 62.58H21.8418C21.8098 62.124 21.6858 61.724 21.4698 61.38C21.2618 61.036 20.9858 60.768 20.6418 60.576C20.3058 60.376 19.9338 60.276 19.5258 60.276C19.1178 60.276 18.7458 60.376 18.4098 60.576C18.0738 60.768 17.7978 61.04 17.5818 61.392C17.3738 61.736 17.2538 62.132 17.2218 62.58ZM24.641 63.576C24.641 63.224 24.677 62.924 24.749 62.676C24.829 62.42 24.941 62.2 25.085 62.016C25.237 61.832 25.429 61.672 25.661 61.536C25.813 61.44 25.985 61.34 26.177 61.236C26.377 61.132 26.561 61.012 26.729 60.876C26.905 60.732 27.049 60.56 27.161 60.36C27.273 60.152 27.329 59.904 27.329 59.616C27.329 59.264 27.249 58.976 27.089 58.752C26.937 58.52 26.737 58.348 26.489 58.236C26.241 58.116 25.977 58.056 25.697 58.056C25.417 58.056 25.149 58.112 24.893 58.224C24.645 58.328 24.425 58.472 24.233 58.656C24.041 58.84 23.885 59.048 23.765 59.28L23.201 58.92C23.353 58.592 23.557 58.312 23.813 58.08C24.077 57.848 24.373 57.672 24.701 57.552C25.029 57.432 25.365 57.372 25.709 57.372C26.005 57.372 26.293 57.42 26.573 57.516C26.853 57.604 27.101 57.744 27.317 57.936C27.541 58.128 27.717 58.368 27.845 58.656C27.981 58.936 28.049 59.272 28.049 59.664C28.049 59.984 28.005 60.256 27.917 60.48C27.829 60.696 27.705 60.884 27.545 61.044C27.393 61.196 27.221 61.332 27.029 61.452C26.837 61.572 26.637 61.688 26.429 61.8C26.245 61.904 26.069 62.02 25.901 62.148C25.733 62.276 25.597 62.452 25.493 62.676C25.389 62.892 25.337 63.192 25.337 63.576H24.641ZM24.653 66V64.716H25.361V66H24.653Z" fill="#9C27B0"/>
<path d="M73.3415 47.812V52H71.0015V43.48H72.8255L76.2455 47.812V43.48H78.5855V52H76.7255L73.3415 47.812ZM86.1204 49.96V52H80.0484V43.48H86.0124V45.52H82.3884V46.72H85.4844V48.616H82.3884V49.96H86.1204Z" fill="#9C27B0"/>
<circle cx="54.75" cy="47.75" r="13.75" fill="#9C27B0"/>
<circle cx="55" cy="48" r="14" fill="#9C27B0"/>
<path d="M46.5719 41.8937C45.9756 40.6182 47.7409 39.572 48.1884 40.6182C48.6358 41.6643 48.4293 42.8224 49.3579 43.0546C51.2195 43.414 53.3377 43.9664 53.3377 43.9664C53.3377 43.9664 53.6632 44.0937 54.239 44.0833C54.7227 44.0745 55.1404 43.9664 55.1404 43.9664C55.1404 43.9664 57.187 43.4257 59.1091 43.0546C59.7515 42.9305 59.8389 41.6363 60.3479 40.6182C60.857 39.6001 62.5916 40.6182 61.8752 42.1454C61.1587 43.6727 61.1781 45.2443 60.1649 45.4671C58.5334 45.8259 56.9431 46.1598 56.9431 46.1598C56.9431 46.1598 56.7059 50.1538 56.9431 50.9852C57.1802 51.8166 58.6886 55.6435 59.1964 57.1266C59.7043 58.6098 57.2517 59.5385 56.4924 58.004C55.7331 56.4695 54.239 52.3012 54.239 52.3012C54.239 52.3012 52.4363 56.688 51.9856 58.004C51.535 59.32 48.8309 58.8813 49.2816 57.1266C49.7323 55.3719 51.2101 51.8166 51.535 50.9852C51.8598 50.1538 51.535 46.1598 51.535 46.1598C51.535 46.1598 50.0609 45.8259 48.4293 45.4671C47.4161 45.2443 47.1683 43.1692 46.5719 41.8937Z" fill="#FAFAFA"/>
<path d="M57.1536 40.4615C57.1536 41.9484 55.9483 43.1538 54.4613 43.1538C52.9744 43.1538 51.769 41.9484 51.769 40.4615C51.769 38.9746 52.9744 37.7692 54.4613 37.7692C55.9483 37.7692 57.1536 38.9746 57.1536 40.4615Z" fill="#FAFAFA"/>
<path d="M9.804 49.96V52H3.732V43.48H9.696V45.52H6.072V46.72H9.168V48.616H6.072V49.96H9.804ZM12.5362 43.48L14.2042 49.3L15.8482 43.48H18.3082L15.3682 52H13.0402L10.0642 43.48H12.5362ZM25.0267 49.96V52H18.9547V43.48H24.9187V45.52H21.2947V46.72H24.3907V48.616H21.2947V49.96H25.0267ZM26.1148 52V43.48H30.0268C30.4428 43.48 30.8268 43.564 31.1788 43.732C31.5308 43.9 31.8348 44.128 32.0908 44.416C32.3468 44.696 32.5428 45.012 32.6788 45.364C32.8228 45.716 32.8948 46.072 32.8948 46.432C32.8948 46.76 32.8468 47.076 32.7508 47.38C32.6548 47.684 32.5148 47.964 32.3308 48.22C32.1468 48.468 31.9268 48.684 31.6708 48.868L33.4708 52H30.9028L29.4028 49.384H28.4548V52H26.1148ZM28.4548 47.344H29.9308C30.0268 47.344 30.1188 47.308 30.2068 47.236C30.2948 47.164 30.3668 47.06 30.4228 46.924C30.4868 46.788 30.5188 46.624 30.5188 46.432C30.5188 46.232 30.4828 46.068 30.4108 45.94C30.3468 45.804 30.2628 45.7 30.1588 45.628C30.0628 45.556 29.9668 45.52 29.8708 45.52H28.4548V47.344ZM35.4366 43.48L36.9606 46.96L38.5206 43.48H41.0646L38.1246 49.18V52H35.7966V49.156L32.9046 43.48H35.4366Z" fill="#9C27B0"/>
<path d="M3.504 31.68C3.504 31.16 3.592 30.652 3.768 30.156C3.952 29.652 4.216 29.196 4.56 28.788C4.904 28.372 5.328 28.044 5.832 27.804C6.336 27.556 6.908 27.432 7.548 27.432C8.308 27.432 8.956 27.608 9.492 27.96C10.036 28.304 10.436 28.748 10.692 29.292L10.032 29.7C9.848 29.324 9.616 29.028 9.336 28.812C9.056 28.588 8.756 28.428 8.436 28.332C8.124 28.236 7.812 28.188 7.5 28.188C6.988 28.188 6.536 28.292 6.144 28.5C5.752 28.7 5.42 28.972 5.148 29.316C4.884 29.652 4.684 30.032 4.548 30.456C4.412 30.872 4.344 31.296 4.344 31.728C4.344 32.2 4.424 32.652 4.584 33.084C4.744 33.516 4.968 33.9 5.256 34.236C5.544 34.564 5.88 34.828 6.264 35.028C6.656 35.22 7.08 35.316 7.536 35.316C7.856 35.316 8.184 35.26 8.52 35.148C8.856 35.036 9.168 34.864 9.456 34.632C9.752 34.4 9.988 34.1 10.164 33.732L10.86 34.092C10.684 34.516 10.412 34.876 10.044 35.172C9.676 35.468 9.264 35.692 8.808 35.844C8.36 35.996 7.92 36.072 7.488 36.072C6.904 36.072 6.368 35.948 5.88 35.7C5.392 35.444 4.968 35.108 4.608 34.692C4.256 34.268 3.984 33.796 3.792 33.276C3.6 32.748 3.504 32.216 3.504 31.68ZM11.6226 34.2C11.6226 33.808 11.7346 33.472 11.9586 33.192C12.1826 32.904 12.4906 32.684 12.8826 32.532C13.2826 32.372 13.7426 32.292 14.2626 32.292C14.5666 32.292 14.8826 32.316 15.2106 32.364C15.5386 32.412 15.8306 32.484 16.0866 32.58V32.052C16.0866 31.524 15.9306 31.104 15.6186 30.792C15.3066 30.48 14.8746 30.324 14.3226 30.324C13.9866 30.324 13.6546 30.388 13.3266 30.516C13.0066 30.636 12.6706 30.816 12.3186 31.056L12.0066 30.48C12.4146 30.2 12.8146 29.992 13.2066 29.856C13.5986 29.712 13.9986 29.64 14.4066 29.64C15.1746 29.64 15.7826 29.86 16.2306 30.3C16.6786 30.74 16.9026 31.348 16.9026 32.124V35.016C16.9026 35.128 16.9266 35.212 16.9746 35.268C17.0226 35.316 17.0986 35.344 17.2026 35.352V36C17.1146 36.008 17.0386 36.016 16.9746 36.024C16.9106 36.032 16.8626 36.032 16.8306 36.024C16.6306 36.016 16.4786 35.952 16.3746 35.832C16.2706 35.712 16.2146 35.584 16.2066 35.448L16.1946 34.992C15.9146 35.352 15.5506 35.632 15.1026 35.832C14.6546 36.024 14.1986 36.12 13.7346 36.12C13.3346 36.12 12.9706 36.036 12.6426 35.868C12.3226 35.692 12.0706 35.46 11.8866 35.172C11.7106 34.876 11.6226 34.552 11.6226 34.2ZM15.8106 34.68C15.8986 34.568 15.9666 34.46 16.0146 34.356C16.0626 34.252 16.0866 34.16 16.0866 34.08V33.168C15.8146 33.064 15.5306 32.984 15.2346 32.928C14.9466 32.872 14.6546 32.844 14.3586 32.844C13.7746 32.844 13.3026 32.96 12.9426 33.192C12.5826 33.424 12.4026 33.74 12.4026 34.14C12.4026 34.372 12.4626 34.592 12.5826 34.8C12.7026 35 12.8786 35.168 13.1106 35.304C13.3426 35.432 13.6146 35.496 13.9266 35.496C14.3186 35.496 14.6826 35.42 15.0186 35.268C15.3626 35.116 15.6266 34.92 15.8106 34.68ZM23.9216 36H23.1056V32.508C23.1056 31.772 22.9976 31.236 22.7816 30.9C22.5656 30.556 22.2256 30.384 21.7616 30.384C21.4416 30.384 21.1256 30.464 20.8136 30.624C20.5016 30.776 20.2256 30.988 19.9856 31.26C19.7536 31.524 19.5856 31.828 19.4816 32.172V36H18.6656V29.748H19.4096V31.164C19.5776 30.86 19.7976 30.596 20.0696 30.372C20.3416 30.14 20.6496 29.96 20.9936 29.832C21.3376 29.704 21.6936 29.64 22.0616 29.64C22.4056 29.64 22.6976 29.704 22.9376 29.832C23.1776 29.96 23.3696 30.144 23.5136 30.384C23.6576 30.616 23.7616 30.9 23.8256 31.236C23.8896 31.564 23.9216 31.932 23.9216 32.34V36Z" fill="#9C27B0"/>
</svg>
