<svg width="61" height="61" viewBox="0 0 61 61" fill="none" xmlns="http://www.w3.org/2000/svg">
<circle cx="30.1506" cy="30.1506" r="30.1506" fill="#9C27B0"/>
<path d="M11.9999 17C10.7156 14.2531 14.5174 12.0001 15.4811 14.2531C16.4447 16.5061 15.9999 19.0001 17.9999 19.5001C22.009 20.2743 26.5706 21.4638 26.5706 21.4638C26.5706 21.4638 27.2717 21.738 28.5118 21.7155C29.5535 21.6966 30.453 21.4638 30.453 21.4638C30.453 21.4638 34.8605 20.2995 39 19.5001C40.3835 19.2329 40.5717 16.4458 41.668 14.2531C42.7643 12.0604 46.5 14.2531 44.9571 17.5422C43.4142 20.8312 43.456 24.2158 41.2739 24.6957C37.7603 25.4685 34.3353 26.1875 34.3353 26.1875C34.3353 26.1875 33.8246 34.789 34.3353 36.5796C34.8459 38.3701 38.0944 46.6117 39.1882 49.8059C40.2819 53 35 55 33.3647 51.6953C31.7294 48.3907 28.5118 39.4138 28.5118 39.4138C28.5118 39.4138 24.6295 48.8611 23.6589 51.6953C22.6883 54.5295 16.8647 53.5848 17.8354 49.8059C18.8061 46.0269 21.9888 38.3701 22.6883 36.5796C23.3879 34.789 22.6883 26.1875 22.6883 26.1875C22.6883 26.1875 19.5136 25.4685 16 24.6957C13.8178 24.2158 13.2841 19.747 11.9999 17Z" fill="#FAFAFA"/>
<path d="M34.7887 13.9155C34.7887 17.1178 32.1927 19.7137 28.9905 19.7137C25.7882 19.7137 23.1923 17.1178 23.1923 13.9155C23.1923 10.7133 25.7882 8.11735 28.9905 8.11735C32.1927 8.11735 34.7887 10.7133 34.7887 13.9155Z" fill="#FAFAFA"/>
</svg>
